<mxfile host="app.diagrams.net" modified="2023-10-18T13:49:33.891Z" agent="Mozilla/5.0 (Windows NT 10.0; Win64; x64) AppleWebKit/537.36 (KHTML, like Gecko) Chrome/118.0.0.0 Safari/537.36" etag="uqeoeHyd2OXgFHEdiEjc" version="22.0.4" type="github">
  <diagram name="Страница — 1" id="1TyWfaTwufxP09soL2rn">
    <mxGraphModel dx="1434" dy="790" grid="1" gridSize="10" guides="1" tooltips="1" connect="1" arrows="1" fold="1" page="1" pageScale="1" pageWidth="1169" pageHeight="827" math="0" shadow="0">
      <root>
        <mxCell id="0" />
        <mxCell id="1" parent="0" />
        <mxCell id="qO7vztj5GkXDfMirmUgg-4" value="" style="rounded=1;whiteSpace=wrap;html=1;" vertex="1" parent="1">
          <mxGeometry x="50" y="420" width="1080" height="240" as="geometry" />
        </mxCell>
        <mxCell id="qO7vztj5GkXDfMirmUgg-1" value="Order created WITH id(pk) 500&lt;br&gt;&lt;ol&gt;&lt;li&gt;&lt;span style=&quot;background-color: initial;&quot;&gt;Creation is considered a change&lt;/span&gt;&lt;/li&gt;&lt;li&gt;&lt;span style=&quot;background-color: initial;&quot;&gt;Fix what time the order was created and by who.&lt;/span&gt;&lt;/li&gt;&lt;li&gt;&lt;span style=&quot;background-color: initial;&quot;&gt;Cause a record to be created in change document model with the info from #2&lt;/span&gt;&lt;/li&gt;&lt;/ol&gt;" style="rounded=1;whiteSpace=wrap;html=1;align=left;" vertex="1" parent="1">
          <mxGeometry x="70" y="460" width="190" height="190" as="geometry" />
        </mxCell>
        <mxCell id="qO7vztj5GkXDfMirmUgg-2" value="" style="shape=flexArrow;endArrow=classic;html=1;rounded=0;" edge="1" parent="1">
          <mxGeometry width="50" height="50" relative="1" as="geometry">
            <mxPoint x="40" y="380" as="sourcePoint" />
            <mxPoint x="1020" y="380" as="targetPoint" />
          </mxGeometry>
        </mxCell>
        <mxCell id="qO7vztj5GkXDfMirmUgg-3" value="&lt;b&gt;&lt;font style=&quot;font-size: 20px;&quot;&gt;TIME&lt;/font&gt;&lt;/b&gt;" style="text;html=1;strokeColor=none;fillColor=none;align=center;verticalAlign=middle;whiteSpace=wrap;rounded=0;" vertex="1" parent="1">
          <mxGeometry x="390" y="340" width="340" height="30" as="geometry" />
        </mxCell>
        <mxCell id="qO7vztj5GkXDfMirmUgg-5" value="Order Model" style="text;html=1;strokeColor=none;fillColor=none;align=center;verticalAlign=middle;whiteSpace=wrap;rounded=0;" vertex="1" parent="1">
          <mxGeometry x="510" y="430" width="140" height="40" as="geometry" />
        </mxCell>
        <mxCell id="qO7vztj5GkXDfMirmUgg-6" value="" style="rounded=1;whiteSpace=wrap;html=1;" vertex="1" parent="1">
          <mxGeometry x="50" y="720" width="1080" height="320" as="geometry" />
        </mxCell>
        <mxCell id="qO7vztj5GkXDfMirmUgg-7" value="Change Document" style="text;html=1;strokeColor=none;fillColor=none;align=center;verticalAlign=middle;whiteSpace=wrap;rounded=0;" vertex="1" parent="1">
          <mxGeometry x="510" y="730" width="140" height="40" as="geometry" />
        </mxCell>
        <mxCell id="qO7vztj5GkXDfMirmUgg-9" value="&lt;br&gt;First record for order 500 is created with info passed from the Order model.&lt;br&gt;&lt;ol&gt;&lt;li&gt;OBJNR = 500ORDSTAT(ORD is a prefix denoting from which model is the record STAT is the current status )&lt;/li&gt;&lt;li&gt;change_num = 1&lt;/li&gt;&lt;li&gt;user_id = who&#39;s doing the change&lt;/li&gt;&lt;li&gt;time_stamp = time when the change is taking place&amp;nbsp;&lt;/li&gt;&lt;/ol&gt;" style="rounded=1;whiteSpace=wrap;html=1;align=left;verticalAlign=top;" vertex="1" parent="1">
          <mxGeometry x="100" y="775" width="200" height="255" as="geometry" />
        </mxCell>
        <mxCell id="qO7vztj5GkXDfMirmUgg-10" value="" style="endArrow=classic;html=1;rounded=0;exitX=0.5;exitY=1;exitDx=0;exitDy=0;entryX=0.342;entryY=0.024;entryDx=0;entryDy=0;entryPerimeter=0;" edge="1" parent="1" source="qO7vztj5GkXDfMirmUgg-1" target="qO7vztj5GkXDfMirmUgg-9">
          <mxGeometry width="50" height="50" relative="1" as="geometry">
            <mxPoint x="390" y="660" as="sourcePoint" />
            <mxPoint x="160" y="770" as="targetPoint" />
          </mxGeometry>
        </mxCell>
        <mxCell id="qO7vztj5GkXDfMirmUgg-11" value="Order WITH id(pk) 500 status is changed&lt;br&gt;&lt;ol&gt;&lt;li&gt;&lt;span style=&quot;background-color: initial;&quot;&gt;Creation is considered a change&lt;/span&gt;&lt;/li&gt;&lt;li&gt;&lt;span style=&quot;background-color: initial;&quot;&gt;Fix what time the order was created and by who.&lt;/span&gt;&lt;/li&gt;&lt;li&gt;&lt;span style=&quot;background-color: initial;&quot;&gt;Cause a record to be created in change document model with the info from #2&lt;/span&gt;&lt;/li&gt;&lt;/ol&gt;" style="rounded=1;whiteSpace=wrap;html=1;align=left;" vertex="1" parent="1">
          <mxGeometry x="310" y="460" width="190" height="190" as="geometry" />
        </mxCell>
        <mxCell id="qO7vztj5GkXDfMirmUgg-12" value="&lt;br&gt;First record for order 500 is created with info passed from the Order model.&lt;br&gt;&lt;ol&gt;&lt;li&gt;OBJNR = 500ORD(ORD is a prefix denoting from which model is the record )&lt;/li&gt;&lt;li&gt;change_num = 1&lt;/li&gt;&lt;li&gt;user_id = who&#39;s doing the change&lt;/li&gt;&lt;li&gt;time_stamp = time when the change is taking place&amp;nbsp;&lt;/li&gt;&lt;/ol&gt;" style="rounded=1;whiteSpace=wrap;html=1;align=left;verticalAlign=top;" vertex="1" parent="1">
          <mxGeometry x="330" y="775" width="190" height="210" as="geometry" />
        </mxCell>
      </root>
    </mxGraphModel>
  </diagram>
</mxfile>
